<?xml version="1.0" encoding="UTF-8" standalone="no"?>
<svg xmlns="http://www.w3.org/2000/svg" width="135" height="40" viewBox="0 0 135 40">
  <rect width="135" height="40" rx="5" fill="#000000"/>
  <path d="M130,0H5a5,5,0,0,0-5,5V35a5,5,0,0,0,5,5H130a5,5,0,0,0,5-5V5A5,5,0,0,0,130,0Z"/>
  <path fill="#FFFFFF" d="M134,35a4,4,0,0,1-4,4H5a4,4,0,0,1-4-4V5A4,4,0,0,1,5,1H130a4,4,0,0,1,4,4Z"/>
  <path fill="#000000" d="M134,35a4,4,0,0,1-4,4H5a4,4,0,0,1-4-4V5A4,4,0,0,1,5,1H130a4,4,0,0,1,4,4Z"/>
  <g>
    <path fill="#FFFFFF" d="M30.13,19.78A5.57,5.57,0,0,1,35.77,14c.07,3.52-3.1,5.91-5.77,5.91-.31,0-.86-.05-.86-.05l-.09-.5A4.3,4.3,0,0,0,30.13,19.78Z"/>
    <path fill="#FFFFFF" d="M27.73,13.5a5.74,5.74,0,0,1,1.49-.2A5.18,5.18,0,0,1,33,14.47l.28.24.76-.46A6.29,6.29,0,0,0,29.77,12c-.55,0-1.1.07-1.65.21Z"/>
    <path fill="#FFFFFF" d="M33.06,22.24A4.87,4.87,0,0,0,36.09,20h0l-.8-.28A5.89,5.89,0,0,1,32,22.07a12.28,12.28,0,0,1-1.83.46q-.53.09-1.05.12c-.19,0-.39,0-.59,0a6.39,6.39,0,0,1-2.61-.46A8.64,8.64,0,0,1,20,13.5l-.39.25A9.62,9.62,0,0,0,23.9,23.33a7.32,7.32,0,0,0,2.49.44c.22,0,.44,0,.65,0a11.51,11.51,0,0,0,1.84-.18,12.23,12.23,0,0,0,1.79-.45q1.22-.4,2.39-.91Z"/>
    <path fill="#FFFFFF" d="M41.71,27.09c2.75-1.85,2.32-5.18,2.32-5.18H43.5s.16,2.8-2.18,4.19Z"/>
    <g fill="#FFFFFF">
      <path d="M45.84,22.47H45.3V20.4H42.57v2.07H42V17.63h.53v2.18H45.3V17.63h.54Z"/>
      <path d="M49.73,22.53a1.7,1.7,0,0,1-1.26-.52,1.82,1.82,0,0,1-.5-1.34v-.11a2.24,2.24,0,0,1,.22-1,1.64,1.64,0,0,1,.62-.68,1.6,1.6,0,0,1,.88-.24,1.47,1.47,0,0,1,1.19.5,2,2,0,0,1,.42,1.35v.22H48.5A1.36,1.36,0,0,0,48.89,22a1.24,1.24,0,0,0,.87.31,1.36,1.36,0,0,0,.58-.11,1.69,1.69,0,0,0,.47-.32l.32.25A1.82,1.82,0,0,1,49.73,22.53Zm-.05-3.33a1,1,0,0,0-.77.32,1.46,1.46,0,0,0-.37.87h2.17V20.3a1.32,1.32,0,0,0-.3-.81A1,1,0,0,0,49.68,19.2Z"/>
      <path d="M55.55,21.61a.9.9,0,0,1-.4.7,1.58,1.58,0,0,1-1,.22,1.61,1.61,0,0,1-1.13-.37,1.39,1.39,0,0,1-.42-1.09v-2.9h.53v2.89c0,.64.29,1,.87,1a1.13,1.13,0,0,0,1.09-.54V18.17h.53v4.3h-.51Z"/>
      <path d="M59.66,20.52H58.08v2h-.54V17.63h2.41v.51H58.08v1.88h1.58Z"/>
      <path d="M63.15,21.94H61L60.54,23h-.58l1.88-5.37h.49L64.21,23h-.58Zm-2-.5h1.78l-.89-2.6Z"/>
      <path d="M67.5,20.28a2.3,2.3,0,0,1-.2,1,1.44,1.44,0,0,1-.58.69,1.62,1.62,0,0,1-.87.24,1.51,1.51,0,0,1-1.2-.54v2.05h-.53V18.17h.49l0,.51a1.51,1.51,0,0,1,1.23-.57,1.54,1.54,0,0,1,1.26.57,2.25,2.25,0,0,1,.42,1.38Zm-.53,0a1.82,1.82,0,0,0-.3-1.1,1,1,0,0,0-.85-.4,1.13,1.13,0,0,0-1.14.65v1.8a1.14,1.14,0,0,0,1.14.63,1,1,0,0,0,.84-.4A1.87,1.87,0,0,0,67,20.34Z"/>
      <path d="M71.86,22.53a1.7,1.7,0,0,1-1.26-.52,1.82,1.82,0,0,1-.5-1.34v-.11a2.24,2.24,0,0,1,.22-1,1.64,1.64,0,0,1,.62-.68,1.6,1.6,0,0,1,.88-.24,1.47,1.47,0,0,1,1.19.5,2,2,0,0,1,.42,1.35v.22H70.63a1.36,1.36,0,0,0,.39,1,1.24,1.24,0,0,0,.87.31,1.36,1.36,0,0,0,.58-.11,1.69,1.69,0,0,0,.47-.32l.32.25A1.82,1.82,0,0,1,71.86,22.53Zm-.05-3.33a1,1,0,0,0-.77.32,1.46,1.46,0,0,0-.37.87h2.17V20.3a1.32,1.32,0,0,0-.3-.81A1,1,0,0,0,71.81,19.2Z"/>
      <path d="M76.18,19a2,2,0,0,0-.29,0,1.13,1.13,0,0,0-1.09.57v3h-.53v-4.3h.51l0,.5a1.35,1.35,0,0,1,1.21-.56,1,1,0,0,1,.28,0Z"/>
      <path d="M80.21,21.94H78.06L77.62,23H77l1.88-5.37h.49L81.25,23h-.58Zm-2-.5H80l-.9-2.6Z"/>
      <path d="M84.51,20.81H82v2.66h-.54V17.63h3.28v.51H82v2.17h2.51Z"/>
      <path d="M88.29,22.53a1.7,1.7,0,0,1-1.26-.52,1.82,1.82,0,0,1-.5-1.34v-.11a2.24,2.24,0,0,1,.22-1,1.64,1.64,0,0,1,.62-.68,1.6,1.6,0,0,1,.88-.24,1.47,1.47,0,0,1,1.19.5,2,2,0,0,1,.42,1.35v.22H87.06a1.36,1.36,0,0,0,.39,1,1.24,1.24,0,0,0,.87.31A1.36,1.36,0,0,0,88.9,22a1.69,1.69,0,0,0,.47-.32l.32.25A1.82,1.82,0,0,1,88.29,22.53Zm-.05-3.33a1,1,0,0,0-.77.32,1.46,1.46,0,0,0-.37.87h2.17V20.3a1.32,1.32,0,0,0-.3-.81A1,1,0,0,0,88.24,19.2Z"/>
      <path d="M93.83,21.61a.9.9,0,0,1-.4.7,1.58,1.58,0,0,1-1,.22,1.61,1.61,0,0,1-1.13-.37,1.39,1.39,0,0,1-.42-1.09v-2.9h.53v2.89c0,.64.29,1,.87,1a1.13,1.13,0,0,0,1.09-.54V18.17h.53v4.3h-.51Z"/>
      <path d="M97.67,22.47v-.49a1.55,1.55,0,0,1-1.25.55,1.35,1.35,0,0,1-.81-.22,1,1,0,0,1-.45-.61,5.24,5.24,0,0,1-.07-.94V18.17h.53v2.59q0,1,.87,1a1.17,1.17,0,0,0,1.16-.63V18.17h.53v4.3Z"/>
      <path d="M99.6,20.18a2.34,2.34,0,0,1,.25-1.11,1.85,1.85,0,0,1,.7-.73,2.08,2.08,0,0,1,1-.26,2,2,0,0,1,1.46.58,2.14,2.14,0,0,1,.63,1.52v.16a2.37,2.37,0,0,1-.25,1.1,1.81,1.81,0,0,1-.7.74,2,2,0,0,1-1,.26,2,2,0,0,1-1.48-.59,2.09,2.09,0,0,1-.59-1.53Zm.54.13a1.66,1.66,0,0,0,.41,1.15,1.32,1.32,0,0,0,1.05.45,1.29,1.29,0,0,0,1-.45,1.88,1.88,0,0,0,.4-1.25,1.64,1.64,0,0,0-.41-1.14,1.34,1.34,0,0,0-1-.45,1.31,1.31,0,0,0-1,.44A1.84,1.84,0,0,0,100.14,20.31Z"/>
      <path d="M107.8,19a1.94,1.94,0,0,0-.29,0,1.13,1.13,0,0,0-1.09.57v3h-.53v-4.3h.51l0,.5a1.35,1.35,0,0,1,1.21-.56,1,1,0,0,1,.28,0Z"/>
      <path d="M110.93,19.86l.77-1.69h.57l-1.06,2.15,1.1,2.15h-.57l-.81-1.65-.81,1.65h-.58l1.1-2.15-1.06-2.15h.57Z"/>
    </g>
    <g fill="#FFFFFF">
      <path d="M50.64,13l-1.45,4.51H48.62l-1.2-3.78L46.24,17.5H45.66L44.21,13h.65l1.08,4,1.16-4h.59l1.17,4L49.94,13Z"/>
      <path d="M54.34,15.43a2.57,2.57,0,0,1-.25,1.16,1.84,1.84,0,0,1-.71.77,1.93,1.93,0,0,1-1,.27,2,2,0,0,1-1.47-.59,2.3,2.3,0,0,1-.63-1.62v-.29a2.61,2.61,0,0,1,.24-1.15,1.9,1.9,0,0,1,.7-.77,1.94,1.94,0,0,1,1.05-.27,1.9,1.9,0,0,1,1.46.61A2.29,2.29,0,0,1,54.34,15.43Zm-.64,0a1.84,1.84,0,0,0-.4-1.26,1.33,1.33,0,0,0-1.07-.48,1.34,1.34,0,0,0-1.06.47,1.86,1.86,0,0,0-.41,1.24v.27a1.86,1.86,0,0,0,.4,1.25,1.35,1.35,0,0,0,1.08.49,1.34,1.34,0,0,0,1.06-.48A1.9,1.9,0,0,0,53.7,15.69Z"/>
      <path d="M58,17.5h-.63V13h.63Z"/>
      <path d="M61.86,17.5h-.62V13h.62Z"/>
      <path d="M66.37,15.43a2.57,2.57,0,0,1-.25,1.16,1.84,1.84,0,0,1-.71.77,1.93,1.93,0,0,1-1,.27,2,2,0,0,1-1.47-.59,2.3,2.3,0,0,1-.63-1.62v-.29a2.61,2.61,0,0,1,.24-1.15,1.9,1.9,0,0,1,.7-.77,1.94,1.94,0,0,1,1.05-.27,1.9,1.9,0,0,1,1.46.61A2.29,2.29,0,0,1,66.37,15.43Zm-.64,0a1.84,1.84,0,0,0-.4-1.26,1.33,1.33,0,0,0-1.07-.48,1.34,1.34,0,0,0-1.06.47,1.86,1.86,0,0,0-.41,1.24v.27a1.86,1.86,0,0,0,.4,1.25,1.35,1.35,0,0,0,1.08.49,1.34,1.34,0,0,0,1.06-.48A1.9,1.9,0,0,0,65.73,15.69Z"/>
      <path d="M70.09,13.59,72,17.5h-.71l-1.6-3.28-.89.95v2.33H68.2V13h.64v.82l.36-.41,1.28-1.16Z"/>
      <path d="M73.21,17.5a1.31,1.31,0,0,1-.08-.4,1.41,1.41,0,0,1-1.11.48,1.4,1.4,0,0,1-1-.35,1.12,1.12,0,0,1-.38-.87,1.18,1.18,0,0,1,.5-1,2.31,2.31,0,0,1,1.4-.36h.59v-.29a.83.83,0,0,0-.23-.62.92.92,0,0,0-.68-.23,1,1,0,0,0-.66.21.62.62,0,0,0-.25.5H70.7a1.1,1.1,0,0,1,.23-.64,1.47,1.47,0,0,1,.61-.46,2,2,0,0,1,.83-.16,1.67,1.67,0,0,1,1.12.36,1.32,1.32,0,0,1,.42,1v1.93c0,.38.05.69.15.91v.06Zm-1.14-.53a1.19,1.19,0,0,0,.68-.2,1,1,0,0,0,.41-.52v-.75h-.47c-.37,0-.65.07-.84.19a.61.61,0,0,0-.29.53.52.52,0,0,0,.18.41A.7.7,0,0,0,72.07,17Z"/>
      <path d="M75.51,12.22v.82h.64v.48h-.64v2.65a.57.57,0,0,0,.1.39.49.49,0,0,0,.37.12,1.71,1.71,0,0,0,.28,0v.49A2,2,0,0,1,75.8,17a.8.8,0,0,1-.67-.27,1.14,1.14,0,0,1-.23-.77V13.52h-.63V13h.63v-.82Z"/>
      <path d="M77.13,12.84a.38.38,0,0,1,.11-.28.42.42,0,0,1,.57,0,.38.38,0,0,1,.11.28.37.37,0,0,1-.11.28.44.44,0,0,1-.57,0A.38.38,0,0,1,77.13,12.84Zm.69,4.66h-.63V13h.63Z"/>
      <path d="M82.12,15.26a2.48,2.48,0,0,1-.47,1.58,1.53,1.53,0,0,1-1.29.6,1.44,1.44,0,0,1-1.16-.51v2.14h-.63V13h.59l0,.48a1.46,1.46,0,0,1,1.19-.55,1.56,1.56,0,0,1,1.3.58,2.51,2.51,0,0,1,.47,1.58Zm-.63,0a1.94,1.94,0,0,0-.32-1.18,1,1,0,0,0-.89-.44,1.11,1.11,0,0,0-1.07.6v2.1a1.13,1.13,0,0,0,1.08.6,1,1,0,0,0,.88-.43A2.07,2.07,0,0,0,81.49,15.33Z"/>
      <path d="M86.2,15.26a2.48,2.48,0,0,1-.47,1.58,1.53,1.53,0,0,1-1.29.6,1.45,1.45,0,0,1-1.17-.51v2.14h-.62V13h.58l0,.48a1.48,1.48,0,0,1,1.2-.55,1.57,1.57,0,0,1,1.3.58A2.51,2.51,0,0,1,86.2,15.26Zm-.63,0a1.94,1.94,0,0,0-.32-1.18,1,1,0,0,0-.89-.44,1.11,1.11,0,0,0-1.07.6v2.1a1.13,1.13,0,0,0,1.08.6,1,1,0,0,0,.88-.43A2.07,2.07,0,0,0,85.57,15.33Z"/>
    </g>
  </g>
</svg>