<?xml version="1.0" encoding="UTF-8" standalone="no"?>
<svg width="300" height="450" viewBox="0 0 300 450" xmlns="http://www.w3.org/2000/svg">
  <rect width="300" height="450" fill="#f1f5f9"/>
  <g fill="#94a3b8" transform="translate(75,130)">
    <path d="M75,0 C116.421,0 150,33.579 150,75 C150,116.421 116.421,150 75,150 C33.579,150 0,116.421 0,75 C0,33.579 33.579,0 75,0 Z M75,20 C44.624,20 20,44.624 20,75 C20,105.376 44.624,130 75,130 C105.376,130 130,105.376 130,75 C130,44.624 105.376,20 75,20 Z"/>
    <path d="M75,170 C116.421,170 150,176.716 150,185 L150,185 L150,200 L0,200 L0,185 C0,176.716 33.579,170 75,170 Z"/>
  </g>
  <text x="150" y="380" font-family="Arial, sans-serif" font-size="20" text-anchor="middle" fill="#64748b">Lọc Phim</text>
</svg>