<?xml version="1.0" encoding="UTF-8" standalone="no"?>
<svg xmlns="http://www.w3.org/2000/svg" width="135" height="40" viewBox="0 0 135 40">
  <rect width="135" height="40" rx="5" fill="#000000"/>
  <g fill="#ffffff">
    <path d="M47.42,10.24c0,0.84-0.25,1.51-0.75,2c-0.56,0.58-1.3,0.87-2.2,0.87c-0.86,0-1.6-0.3-2.21-0.9s-0.91-1.32-0.91-2.17c0-0.85,0.3-1.57,0.91-2.17c0.61-0.6,1.35-0.9,2.21-0.9c0.43,0,0.84,0.08,1.23,0.25c0.39,0.17,0.7,0.39,0.94,0.67l-0.53,0.53c-0.4-0.47-0.94-0.71-1.64-0.71c-0.63,0-1.18,0.22-1.64,0.67c-0.46,0.44-0.69,1.02-0.69,1.73s0.23,1.29,0.69,1.73c0.46,0.44,1.01,0.67,1.64,0.67c0.67,0,1.23-0.22,1.68-0.67c0.29-0.29,0.46-0.7,0.5-1.22h-2.17V9.19h2.9C47.4,9.58,47.42,9.93,47.42,10.24z"/>
    <path d="M52.03,7.74h-2.7v1.91h2.46v0.72H49.33v1.91h2.7V13h-3.5V7h3.5V7.74z"/>
    <path d="M55.28,13h-0.77V7.74h-1.68V7h4.12v0.74h-1.68V13z"/>
    <path d="M59.94,13V7h0.77v6H59.94z"/>
    <path d="M64.13,13h-0.77V7.74h-1.68V7h4.12v0.74h-1.68V13z"/>
    <path d="M73.61,12.22c-0.59,0.61-1.32,0.91-2.2,0.91c-0.88,0-1.61-0.3-2.2-0.91c-0.59-0.61-0.88-1.32-0.88-2.15s0.29-1.54,0.88-2.15c0.59-0.61,1.32-0.91,2.2-0.91c0.87,0,1.6,0.3,2.2,0.91c0.59,0.61,0.89,1.32,0.89,2.15S74.2,11.61,73.61,12.22z M69.78,11.69c0.44,0.45,0.98,0.67,1.63,0.67c0.65,0,1.19-0.22,1.63-0.67c0.44-0.45,0.65-1.02,0.65-1.71s-0.22-1.26-0.65-1.71c-0.44-0.45-0.98-0.67-1.63-0.67c-0.65,0-1.19,0.22-1.63,0.67c-0.44,0.45-0.65,1.02-0.65,1.71S69.34,11.24,69.78,11.69z"/>
    <path d="M75.58,13V7h0.94l2.92,4.67h0.03l-0.03-1.16V7h0.77v6h-0.8l-3.05-4.89h-0.03l0.03,1.16V13H75.58z"/>
    <path d="M47.07,21.68c-1.14,0-2.14,0.38-2.91,1.15c-0.77,0.76-1.16,1.77-1.16,3.03c0,1.25,0.39,2.26,1.16,3.03c0.77,0.76,1.77,1.15,2.91,1.15c1.11,0,2.07-0.37,2.86-1.12l-0.57-0.54c-0.61,0.57-1.35,0.86-2.29,0.86c-0.88,0-1.67-0.29-2.31-0.87c-0.66-0.6-0.99-1.4-0.99-2.5c0-1.09,0.33-1.9,0.99-2.5c0.64-0.58,1.43-0.87,2.31-0.87c0.97,0,1.8,0.33,2.42,0.98l0.57-0.55C49.07,22.07,48.15,21.68,47.07,21.68z"/>
    <path d="M52.89,21.76h-0.75v7.48h3.1v-0.7h-2.35V21.76z"/>
    <path d="M57.68,21.68c-0.62,0-1.21,0.15-1.7,0.45c-0.45,0.28-0.81,0.67-1.01,1.11l0.66,0.28c0.13-0.31,0.37-0.57,0.7-0.79c0.36-0.23,0.81-0.35,1.34-0.35c0.58,0,1.05,0.16,1.36,0.45c0.32,0.31,0.48,0.73,0.48,1.21v0.25l-1.9,0.07c-0.8,0.03-1.43,0.25-1.87,0.64c-0.43,0.37-0.64,0.86-0.64,1.49c0,0.57,0.2,1.05,0.6,1.45c0.41,0.39,0.97,0.59,1.67,0.59c0.79,0,1.5-0.34,2.13-1.02v0.94h0.72v-4.36c0-0.71-0.23-1.29-0.7-1.7C58.95,21.88,58.36,21.68,57.68,21.68z M59.51,26.54c0,0.61-0.17,1.06-0.53,1.43c-0.36,0.37-0.82,0.54-1.4,0.54c-0.43,0-0.81-0.15-1.09-0.39c-0.28-0.24-0.41-0.56-0.41-0.94c0-0.42,0.14-0.77,0.42-1.01c0.28-0.24,0.73-0.38,1.3-0.4l1.71-0.07V26.54z"/>
    <path d="M64.33,21.68c-0.8,0-1.43,0.19-1.96,0.58c-0.58,0.42-1.03,1.05-1.03,1.98h0.75c0-0.58,0.28-1.03,0.71-1.34c0.36-0.27,0.85-0.42,1.53-0.42c0.57,0,1.04,0.13,1.39,0.39c0.36,0.25,0.53,0.58,0.53,1.02c0,0.51-0.26,0.81-0.81,0.94l-1.96,0.34c-0.54,0.09-0.99,0.32-1.35,0.68c-0.35,0.35-0.53,0.78-0.53,1.31c0,0.6,0.21,1.1,0.65,1.47c0.44,0.37,1.02,0.55,1.76,0.55c0.83,0,1.51-0.37,2.07-1.1c0,0.34,0.04,0.64,0.11,0.94h0.75c-0.1-0.35-0.15-0.76-0.15-1.23v-3.3c0-0.65-0.22-1.17-0.67-1.56C65.58,21.87,65.01,21.68,64.33,21.68z M65.96,25.72c0,0.72-0.18,1.27-0.56,1.66c-0.37,0.39-0.84,0.58-1.42,0.58c-0.5,0-0.9-0.13-1.19-0.38c-0.29-0.25-0.44-0.58-0.44-0.98c0-0.81,0.54-1.28,1.62-1.46l1.99-0.34V25.72z"/>
    <path d="M71.78,21.76v0.95c-0.54-0.69-1.27-1.03-2.18-1.03c-0.81,0-1.5,0.29-2.08,0.86c-0.58,0.57-0.87,1.31-0.87,2.21c0,0.9,0.29,1.64,0.87,2.22c0.58,0.58,1.27,0.86,2.08,0.86c0.91,0,1.64-0.35,2.18-1.04v0.95h0.75v-5.98H71.78z M71.75,24.76c0,0.7-0.2,1.28-0.61,1.73c-0.4,0.45-0.9,0.67-1.52,0.67c-0.61,0-1.13-0.23-1.54-0.68c-0.41-0.45-0.61-1.02-0.61-1.73c0-0.7,0.2-1.28,0.61-1.73c0.41-0.45,0.93-0.68,1.54-0.68c0.61,0,1.12,0.23,1.52,0.68C71.54,23.47,71.75,24.05,71.75,24.76z"/>
    <path d="M78.32,21.76h-0.75v0.95c-0.54-0.69-1.27-1.03-2.18-1.03c-0.81,0-1.5,0.29-2.08,0.86c-0.58,0.57-0.87,1.31-0.87,2.21c0,0.9,0.29,1.64,0.87,2.22c0.58,0.58,1.27,0.86,2.08,0.86c0.91,0,1.64-0.35,2.18-1.04v0.95h0.75V21.76z M77.54,24.76c0,0.7-0.2,1.28-0.61,1.73c-0.4,0.45-0.9,0.67-1.52,0.67c-0.61,0-1.13-0.23-1.54-0.68c-0.41-0.45-0.61-1.02-0.61-1.73c0-0.7,0.2-1.28,0.61-1.73c0.41-0.45,0.93-0.68,1.54-0.68c0.61,0,1.12,0.23,1.52,0.68C77.33,23.47,77.54,24.05,77.54,24.76z"/>
    <path d="M84.68,22.91c-0.49-0.83-1.3-1.24-2.44-1.24c-0.85,0-1.56,0.3-2.13,0.9c-0.57,0.6-0.86,1.33-0.86,2.18c0,0.86,0.29,1.59,0.87,2.18c0.58,0.59,1.31,0.89,2.2,0.89c1.1,0,1.93-0.43,2.5-1.29l-0.63-0.37c-0.4,0.63-1,0.95-1.79,0.95c-0.61,0-1.14-0.21-1.56-0.63c-0.42-0.42-0.63-0.96-0.63-1.62h4.74v-0.18C85.07,24.15,84.94,23.5,84.68,22.91z M80.25,24.3c0.05-0.55,0.25-1,0.6-1.35c0.37-0.38,0.84-0.57,1.4-0.57c0.59,0,1.05,0.19,1.4,0.57c0.35,0.37,0.52,0.82,0.52,1.35H80.25z"/>
    <path d="M90.27,21.68c-0.62,0-1.21,0.15-1.7,0.45c-0.45,0.28-0.81,0.67-1.01,1.11l0.66,0.28c0.13-0.31,0.37-0.57,0.7-0.79c0.36-0.23,0.81-0.35,1.34-0.35c0.58,0,1.05,0.16,1.36,0.45c0.32,0.31,0.48,0.73,0.48,1.21v0.25l-1.9,0.07c-0.8,0.03-1.43,0.25-1.87,0.64c-0.43,0.37-0.64,0.86-0.64,1.49c0,0.57,0.2,1.05,0.6,1.45c0.41,0.39,0.97,0.59,1.67,0.59c0.79,0,1.5-0.34,2.13-1.02v0.94h0.72v-4.36c0-0.71-0.23-1.29-0.7-1.7C91.54,21.88,90.95,21.68,90.27,21.68z M92.1,26.54c0,0.61-0.17,1.06-0.53,1.43c-0.36,0.37-0.82,0.54-1.4,0.54c-0.43,0-0.81-0.15-1.09-0.39c-0.28-0.24-0.41-0.56-0.41-0.94c0-0.42,0.14-0.77,0.42-1.01c0.28-0.24,0.73-0.38,1.3-0.4l1.71-0.07V26.54z"/>
  </g>
  <path d="M40.03,25.68c0,0.13-0.02,0.27-0.04,0.42c-0.25,1.98-1.34,3.74-2.89,4.59c0.59,1.2,1.02,2.5,1.02,4.02c0,0.01,0,0.02,0,0.03l0,0v0.01v0.03c0,0.01,0,0.01,0,0.02c0,0.12-0.04,0.23-0.12,0.31c-0.07,0.08-0.16,0.12-0.26,0.13c-0.01,0-0.02,0-0.03,0c-0.01,0-0.02,0-0.03,0h-0.04c-0.1,0-0.19-0.04-0.27-0.11s-0.12-0.18-0.13-0.29c0-0.01,0-0.02,0-0.04c0-0.01,0-0.03,0-0.05c0-1.25-0.35-2.29-0.81-3.24c-0.11,0.05-0.23,0.09-0.35,0.14c-0.46,0.16-0.95,0.25-1.46,0.28c-0.09,0-0.17,0.01-0.26,0.01c-0.01,0-0.03,0-0.04,0h-0.01h-0.02l-1.11,0.01c-0.16,0-0.32-0.01-0.48-0.02c-0.56-0.04-1.1-0.15-1.6-0.34c-0.09-0.03-0.17-0.07-0.26-0.11c-0.45,0.95-0.79,1.99-0.79,3.23c0,0.02,0,0.04,0,0.05c0,0.01,0,0.03,0,0.04c-0.01,0.11-0.05,0.21-0.13,0.29c-0.08,0.07-0.17,0.11-0.27,0.11h-0.04c-0.01,0-0.02,0-0.03,0c-0.01,0-0.02,0-0.03,0c-0.1-0.01-0.19-0.05-0.26-0.13c-0.08-0.08-0.12-0.19-0.12-0.31v-0.02c0-0.01,0-0.01,0-0.01v-0.03v-0.01c0-0.01,0-0.02,0-0.03c0-1.52,0.44-2.82,1.03-4.02c-1.56-0.85-2.64-2.61-2.89-4.59c-0.03-0.14-0.04-0.28-0.04-0.42c0-0.45,0.08-0.88,0.24-1.29c0.47-1.25,1.5-2.13,2.69-2.13c0.34,0,0.68,0.07,0.99,0.19c1.11-1.43,2.93-2.36,4.97-2.36s3.86,0.93,4.98,2.36c0.32-0.13,0.65-0.19,0.99-0.19c1.19,0,2.22,0.88,2.69,2.13C39.94,24.8,40.03,25.23,40.03,25.68z" fill="url(#a)"/>
  <linearGradient id="a" gradientUnits="userSpaceOnUse" x1="29.4" y1="34.9" x2="27.62" y2="20.04">
    <stop offset="0" stop-color="#00A0FF"/>
    <stop offset=".01" stop-color="#00A1FF"/>
    <stop offset=".26" stop-color="#00BEFF"/>
    <stop offset=".51" stop-color="#00D2FF"/>
    <stop offset=".76" stop-color="#00DFFF"/>
    <stop offset="1" stop-color="#00E3FF"/>
  </linearGradient>
  <path d="M31.3,22.9c0.11,0,0.23,0.01,0.34,0.02c0.9-0.95,2.28-1.55,3.83-1.55c1.44,0,2.72,0.52,3.63,1.34c0.24-0.26,0.53-0.4,0.83-0.4c0.77,0,1.41,0.79,1.57,1.85c0.03,0.18,0.04,0.35,0.04,0.52c0,0.09-0.01,0.18-0.02,0.27c-0.14,1.47-0.82,2.75-1.8,3.54c-0.24,0.19-0.5,0.36-0.78,0.5c-0.17,0.09-0.35,0.16-0.53,0.23c-0.15,0.06-0.31,0.11-0.47,0.15c-0.25,0.07-0.5,0.12-0.77,0.15c-0.12,0.01-0.24,0.03-0.37,0.03c-0.01,0-0.02,0-0.03,0h-0.01h-0.03c-0.3,0.01-0.6,0.01-0.9,0c-0.78-0.04-1.53-0.21-2.23-0.49c-0.26-0.11-0.52-0.23-0.76-0.37c-0.14-0.08-0.28-0.16-0.41-0.25s-0.26-0.18-0.38-0.28c-1.03-0.81-1.74-2.14-1.88-3.68c-0.01-0.08-0.01-0.17-0.02-0.25c0-0.18,0.02-0.35,0.04-0.52C29.89,23.7,30.53,22.9,31.3,22.9z" fill="url(#b)"/>
  <linearGradient id="b" gradientUnits="userSpaceOnUse" x1="35.5" y1="29.37" x2="29.87" y2="22.13">
    <stop offset="0" stop-color="#FFE000"/>
    <stop offset=".41" stop-color="#FFBD00"/>
    <stop offset=".78" stop-color="#FFA500"/>
    <stop offset="1" stop-color="#FF9C00"/>
  </linearGradient>
  <path d="M36.39,28.01c-0.3,0.34-0.66,0.63-1.06,0.84c-0.17,0.09-0.35,0.16-0.53,0.23c-0.15,0.06-0.31,0.11-0.47,0.15c-0.78,0.23-1.63,0.23-2.44,0.01c-0.26-0.07-0.51-0.17-0.76-0.28c-0.14-0.08-0.28-0.16-0.41-0.25c-0.4-0.27-0.74-0.6-1.02-0.99c-0.13,0.16-0.28,0.29-0.46,0.38c-0.26,0.15-0.55,0.22-0.85,0.22c-0.32,0-0.65-0.08-0.95-0.24c-0.13-0.06-0.25-0.14-0.36-0.24c-0.09-0.08-0.18-0.17-0.25-0.27c-0.21-0.26-0.37-0.57-0.48-0.95c-0.12-0.36-0.18-0.77-0.18-1.23c0-0.45,0.06-0.87,0.18-1.23c0.18-0.61,0.5-1.04,0.9-1.24c0.13-0.06,0.26-0.11,0.41-0.13c0.11-0.02,0.23-0.03,0.34-0.03c0.49,0,0.92,0.21,1.25,0.62c0.29-0.38,0.64-0.71,1.03-0.98c0.13-0.09,0.26-0.18,0.39-0.25c0.25-0.15,0.51-0.27,0.77-0.38c0.77-0.3,1.62-0.48,2.51-0.48c0.5,0,0.99,0.06,1.45,0.15c0.48,0.1,0.94,0.25,1.38,0.44c0.13,0.06,0.26,0.12,0.38,0.19c0.14,0.08,0.28,0.16,0.41,0.25c0.38,0.25,0.72,0.55,1.01,0.89c0.29-0.38,0.71-0.58,1.19-0.58c0.11,0,0.23,0.01,0.34,0.03c0.14,0.03,0.28,0.07,0.41,0.13c0.4,0.2,0.72,0.63,0.9,1.24c0.12,0.36,0.18,0.78,0.18,1.23c0,0.46-0.06,0.87-0.18,1.23c-0.12,0.37-0.28,0.69-0.48,0.95c-0.08,0.1-0.16,0.19-0.25,0.27c-0.11,0.09-0.23,0.17-0.36,0.24c-0.31,0.16-0.63,0.24-0.95,0.24c-0.3,0-0.6-0.08-0.86-0.23C36.66,28.3,36.51,28.17,36.39,28.01z" fill="url(#c)"/>
  <linearGradient id="c" gradientUnits="userSpaceOnUse" x1="36.22" y1="29.28" x2="26.39" y2="15.93">
    <stop offset="0" stop-color="#FF3A44"/>
    <stop offset="1" stop-color="#C31162"/>
  </linearGradient>
  <path d="M31.3,22.9c-0.11,0-0.23,0.01-0.34,0.03c-0.14,0.03-0.28,0.07-0.41,0.13c-0.25,0.12-0.46,0.32-0.63,0.6c0.34-0.19,0.73-0.3,1.14-0.3c0.44,0,0.85,0.13,1.2,0.34c0.02-0.02,0.04-0.05,0.06-0.07c-0.29-0.38-0.64-0.71-1.03-0.98L31.3,22.9L31.3,22.9z M36.38,23.68c-0.13-0.09-0.27-0.17-0.41-0.25c-0.12-0.07-0.25-0.13-0.38-0.19c-0.09,0.13-0.17,0.27-0.24,0.42c0.2,0.15,0.38,0.33,0.53,0.53C36.08,24,36.24,23.83,36.38,23.68z M28.05,27.57c0.11,0.34,0.27,0.6,0.48,0.8c0.09,0.09,0.19,0.17,0.3,0.23c0.16-0.68,0.49-1.29,0.94-1.8c-0.01-0.12-0.02-0.24-0.02-0.36c0-0.13,0.01-0.26,0.02-0.39c-0.62,0.53-1.07,1.22-1.29,1.98C28.31,27.81,28.17,27.65,28.05,27.57z M38.81,28.59c0.11-0.06,0.21-0.14,0.3-0.23c0.21-0.2,0.37-0.46,0.48-0.8c-0.12,0.08-0.26,0.13-0.42,0.13c-0.22,0.7-0.68,1.31-1.3,1.73c0.01,0.03,0.01,0.06,0.02,0.08C38.25,29.2,38.57,28.83,38.81,28.59z" fill="url(#d)"/>
  <linearGradient id="d" gradientUnits="userSpaceOnUse" x1="28.88" y1="29.98" x2="33.4" y2="22.91">
    <stop offset="0" stop-color="#32A071"/>
    <stop offset=".07" stop-color="#2DA771"/>
    <stop offset=".48" stop-color="#15CF74"/>
    <stop offset=".8" stop-color="#06E775"/>
    <stop offset="1" stop-color="#00F076"/>
  </linearGradient>
</svg>