<?xml version="1.0" encoding="UTF-8" standalone="no"?>
<svg width="180" height="40" viewBox="0 0 180 40" xmlns="http://www.w3.org/2000/svg">
  <style>
    .text { fill: #334155; }
    .highlight { fill: #0ea5e9; }
  </style>
  <g id="Logo">
    <g id="Icon" transform="translate(0, 0)">
      <path class="highlight" d="M20,0 C31.05,0 40,8.95 40,20 C40,31.05 31.05,40 20,40 C8.95,40 0,31.05 0,20 C0,8.95 8.95,0 20,0 Z M27,13 L13,13 C12.448,13 12,13.448 12,14 L12,26 C12,26.552 12.448,27 13,27 L27,27 C27.552,27 28,26.552 28,26 L28,14 C28,13.448 27.552,13 27,13 Z M17,16 L23,20 L17,24 L17,16 Z" />
    </g>
    <g id="Text" transform="translate(48, 10)">
      <path class="text" d="M8.768,0.368 L8.768,20 L3.968,20 L3.968,0.368 L8.768,0.368 Z M11.936,12.096 C11.936,10.912 12.136,9.856 12.536,8.928 C12.952,8 13.52,7.248 14.24,6.672 C14.976,6.096 15.808,5.672 16.736,5.4 C17.664,5.112 18.64,4.968 19.664,4.968 C20.688,4.968 21.664,5.112 22.592,5.4 C23.52,5.672 24.352,6.096 25.088,6.672 C25.824,7.248 26.392,8 26.792,8.928 C27.208,9.856 27.416,10.912 27.416,12.096 C27.416,13.28 27.208,14.336 26.792,15.264 C26.392,16.192 25.824,16.944 25.088,17.52 C24.352,18.096 23.52,18.528 22.592,18.816 C21.664,19.088 20.688,19.224 19.664,19.224 C18.64,19.224 17.664,19.088 16.736,18.816 C15.808,18.528 14.976,18.096 14.24,17.52 C13.52,16.944 12.952,16.192 12.536,15.264 C12.136,14.336 11.936,13.28 11.936,12.096 Z M16.64,12.096 C16.64,13.024 16.896,13.768 17.408,14.328 C17.936,14.872 18.688,15.144 19.664,15.144 C20.64,15.144 21.384,14.872 21.896,14.328 C22.424,13.768 22.688,13.024 22.688,12.096 C22.688,11.168 22.424,10.432 21.896,9.888 C21.384,9.328 20.64,9.048 19.664,9.048 C18.688,9.048 17.936,9.328 17.408,9.888 C16.896,10.432 16.64,11.168 16.64,12.096 Z M50.328,8.712 C50.232,8.344 50.104,8.016 49.944,7.728 C49.8,7.424 49.608,7.168 49.368,6.96 C49.144,6.752 48.872,6.592 48.552,6.48 C48.248,6.368 47.896,6.312 47.496,6.312 C46.52,6.312 45.76,6.592 45.216,7.152 C44.672,7.712 44.4,8.488 44.4,9.48 L44.4,19 L39.672,19 L39.672,5.192 L44.184,5.192 L44.184,7.032 C44.584,6.392 45.144,5.888 45.864,5.52 C46.584,5.152 47.408,4.968 48.336,4.968 C49.104,4.968 49.8,5.08 50.424,5.304 C51.048,5.512 51.584,5.824 52.032,6.24 C52.48,6.64 52.832,7.144 53.088,7.752 C53.36,8.344 53.512,9.024 53.544,9.792 L50.328,8.712 Z M67.704,19 L63.024,19 L63.024,17.352 C62.576,17.944 62.008,18.4 61.32,18.72 C60.632,19.04 59.848,19.2 58.968,19.2 C58.312,19.2 57.688,19.104 57.096,18.912 C56.52,18.72 56.016,18.44 55.584,18.072 C55.152,17.688 54.808,17.216 54.552,16.656 C54.312,16.096 54.192,15.44 54.192,14.688 L54.192,5.192 L58.92,5.192 L58.92,13.464 C58.92,14.04 59.072,14.496 59.376,14.832 C59.68,15.152 60.096,15.312 60.624,15.312 C61.2,15.312 61.648,15.128 61.968,14.76 C62.288,14.392 62.448,13.896 62.448,13.272 L62.448,5.192 L67.704,5.192 L67.704,19 Z M82.512,8.712 C82.416,8.344 82.288,8.016 82.128,7.728 C81.984,7.424 81.792,7.168 81.552,6.96 C81.328,6.752 81.056,6.592 80.736,6.48 C80.432,6.368 80.08,6.312 79.68,6.312 C78.704,6.312 77.944,6.592 77.4,7.152 C76.856,7.712 76.584,8.488 76.584,9.48 L76.584,19 L71.856,19 L71.856,5.192 L76.368,5.192 L76.368,7.032 C76.768,6.392 77.328,5.888 78.048,5.52 C78.768,5.152 79.592,4.968 80.52,4.968 C81.288,4.968 81.984,5.08 82.608,5.304 C83.232,5.512 83.768,5.824 84.216,6.24 C84.664,6.64 85.016,7.144 85.272,7.752 C85.544,8.344 85.696,9.024 85.728,9.792 L82.512,8.712 Z M87.008,12.048 C87.008,10.848 87.192,9.8 87.56,8.904 C87.944,7.992 88.448,7.248 89.072,6.672 C89.696,6.08 90.408,5.64 91.208,5.352 C92.024,5.064 92.856,4.92 93.704,4.92 C94.888,4.92 95.944,5.12 96.872,5.52 C97.8,5.92 98.536,6.448 99.08,7.104 L95.872,10.008 C95.68,9.752 95.44,9.544 95.152,9.384 C94.88,9.224 94.592,9.144 94.288,9.144 C93.52,9.144 92.944,9.4 92.56,9.912 C92.176,10.408 91.984,11.12 91.984,12.048 C91.984,12.912 92.176,13.624 92.56,14.184 C92.96,14.728 93.6,15 94.48,15 C94.832,15 95.152,14.904 95.44,14.712 C95.728,14.52 95.952,14.28 96.112,13.992 L99.32,16.944 C98.776,17.632 98.024,18.176 97.064,18.576 C96.104,18.96 95.096,19.152 94.04,19.152 C93.08,19.152 92.184,19.024 91.352,18.768 C90.52,18.496 89.792,18.096 89.168,17.568 C88.544,17.04 88.048,16.368 87.68,15.552 C87.312,14.736 87.128,13.76 87.008,12.624 L87.008,12.048 Z M113.072,19 L108.2,19 L108.2,10.728 C108.2,10.152 108.048,9.696 107.744,9.36 C107.44,9.024 107.024,8.856 106.496,8.856 C105.904,8.856 105.44,9.04 105.104,9.408 C104.784,9.776 104.624,10.28 104.624,10.92 L104.624,19 L99.752,19 L99.752,5.192 L104.624,5.192 L104.624,6.84 C105.072,6.264 105.648,5.816 106.352,5.496 C107.056,5.16 107.848,4.992 108.728,4.992 C109.384,4.992 110,5.088 110.576,5.28 C111.168,5.472 111.68,5.76 112.112,6.144 C112.544,6.512 112.88,6.984 113.12,7.56 C113.376,8.12 113.504,8.776 113.504,9.528 L113.072,19 Z" />
    </g>
  </g>
</svg>