<?xml version="1.0" encoding="UTF-8"?>
<svg width="32" height="32" viewBox="0 0 32 32" fill="none" xmlns="http://www.w3.org/2000/svg">
  <!-- Background shape -->
  <rect x="2" y="2" width="28" height="28" rx="8" fill="#E50914"/>
  
  <!-- Film Strip Element -->
  <rect x="6" y="6" width="20" height="20" rx="4" fill="white" fill-opacity="0.2"/>
  <rect x="8" y="8" width="3" height="3" rx="1" fill="white"/>
  <rect x="14" y="8" width="3" height="3" rx="1" fill="white"/>
  <rect x="20" y="8" width="3" height="3" rx="1" fill="white"/>
  
  <rect x="8" y="14" width="3" height="3" rx="1" fill="white"/>
  <rect x="14" y="14" width="3" height="3" rx="1" fill="white"/>
  <rect x="20" y="14" width="3" height="3" rx="1" fill="white"/>
  
  <rect x="8" y="20" width="3" height="3" rx="1" fill="white"/>
  <rect x="14" y="20" width="3" height="3" rx="1" fill="white"/>
  <rect x="20" y="20" width="3" height="3" rx="1" fill="white"/>
  
  <!-- Play Symbol -->
  <path d="M18.75 15.5981C19.0833 15.7887 19.0833 16.2113 18.75 16.4019L15 18.5622C14.6667 18.7528 14.25 18.5415 14.25 18.1603L14.25 13.8397C14.25 13.4585 14.6667 13.2472 15 13.4378L18.75 15.5981Z" fill="white"/>
</svg>