<?xml version="1.0" encoding="UTF-8"?>
<svg width="200" height="80" viewBox="0 0 200 80" fill="none" xmlns="http://www.w3.org/2000/svg">
  <!-- Background shape -->
  <rect x="10" y="15" width="60" height="50" rx="8" fill="#E50914"/>
  
  <!-- Film Strip Element -->
  <rect x="18" y="22" width="44" height="36" rx="4" fill="white" fill-opacity="0.2"/>
  <rect x="20" y="25" width="5" height="5" rx="1" fill="white"/>
  <rect x="30" y="25" width="5" height="5" rx="1" fill="white"/>
  <rect x="40" y="25" width="5" height="5" rx="1" fill="white"/>
  <rect x="50" y="25" width="5" height="5" rx="1" fill="white"/>
  
  <rect x="20" y="35" width="5" height="5" rx="1" fill="white"/>
  <rect x="30" y="35" width="5" height="5" rx="1" fill="white"/>
  <rect x="40" y="35" width="5" height="5" rx="1" fill="white"/>
  <rect x="50" y="35" width="5" height="5" rx="1" fill="white"/>
  
  <rect x="20" y="45" width="5" height="5" rx="1" fill="white"/>
  <rect x="30" y="45" width="5" height="5" rx="1" fill="white"/>
  <rect x="40" y="45" width="5" height="5" rx="1" fill="white"/>
  <rect x="50" y="45" width="5" height="5" rx="1" fill="white"/>
  
  <!-- Text -->
  <text x="80" y="45" font-family="Arial, sans-serif" font-weight="bold" font-size="24" fill="#E50914">LỌC PHIM</text>
  <text x="80" y="60" font-family="Arial, sans-serif" font-size="12" fill="#333">Xem phim chất lượng cao</text>
</svg>